<?xml version="1.0" encoding="UTF-8"?>
<!DOCTYPE svg PUBLIC "-//W3C//DTD SVG 1.1//EN" "http://www.w3.org/Graphics/SVG/1.1/DTD/svg11.dtd">
<svg version="1.1" xmlns="http://www.w3.org/2000/svg" xmlns:xlink="http://www.w3.org/1999/xlink" x="0" y="0" width="1473.393" height="782.496" viewBox="0, 0, 1473.393, 782.496">
  <g id="Layer_1">
    <path d="M764.348,0.015 C762.284,-0.055 760.159,0.073 757.969,0.469 C643.6,5.724 531.391,4.521 420.007,0.82 L255.996,13.228 C185.661,17.717 137.67,13.131 43.228,27.415 C-19.729,44.798 -1.658,100.816 21.064,116.953 C78.149,158.576 178.332,156.37 249.346,150.417 C292.37,164.07 340.21,175.189 422.666,167.483 C421.341,169.339 424.371,171.766 422.813,173.152 C391.835,200.711 421.089,230.141 424.871,237.078 C375.155,258.755 336.05,283.391 353.965,346.509 C358.273,361.519 371.112,371.301 383.071,380.837 C401.172,390.531 425.49,402.128 446.367,407.695 C430.907,424.18 448.625,526.935 537.019,533.621 C549.425,567.103 558.421,602.391 598.191,621.387 C653.453,634.131 707.717,623.021 761.309,595.679 C784.776,594.765 808.245,601.888 857.952,620.2 C904.674,637.413 975.398,649.142 1084.746,608.533 C1082.775,705.259 1153.199,724.153 1232.761,729.536 L1410.82,781.472 L1412.021,782.498 C1412.167,782.319 1412.315,782.13 1412.461,781.956 L1413.303,782.19 L1420.195,774.661 L1418.672,774.177 C1454.369,727.004 1461.166,668.725 1449.016,604.944 C1474.914,552.175 1478.516,490.116 1467.59,419.487 C1465.238,366.314 1447.887,285.508 1366.919,190.415 L1106.133,171.343 C1030.052,111.35 920.613,50.875 781.948,4.145 C776.241,2.223 770.54,0.224 764.348,0.015 z" fill="#000000" id="path19097"/>
    <path d="M1107.341,184.966 L1177.28,186.475 C1257.881,341.909 1294.251,506.745 1190.867,683.115 C1143.153,675.457 1105.778,653.695 1098.669,603.142 C1101.16,602.145 1103.64,601.16 1106.169,600.11 C1154.445,554.674 1184.589,484.656 1193.188,435.125 C1205.682,363.163 1185.963,280.105 1107.773,185.361 z" fill="#FFFFFF" id="path19079"/>
    <path d="M412.815,13.638 C527.746,18.554 646.555,20.207 764.004,15.571 C770.849,15.296 777.086,15.664 783.933,18.853 C896.389,56.532 1005.958,107.067 1094.795,174.243 C1189.173,276.36 1173.134,518.259 1099.101,551.953 L1099.079,551.792 C1098.823,551.996 1098.58,552.154 1098.303,552.312 C1098.003,552.483 1097.677,552.615 1097.358,552.744 L1097.395,552.927 C1089.164,558.438 1080.419,556.798 1071.153,547.807 C1052.034,568.258 1043.869,590.305 1001.897,600.232 C954.708,611.393 899.615,608.247 861.606,583.612 C876.16,562.786 882.056,540.724 880.994,517.668 C939.675,514.292 977.363,489.92 1016.631,467.131 C938.749,457.622 913.762,426.956 893.401,394.438 C852.506,376.599 804.471,349.841 793.228,300.469 C793.687,300.985 835.323,299.838 849.002,291.313 C853.111,288.753 850.927,285.124 852.62,284.949 C860.599,284.061 783.472,282.737 783.472,282.737 C748.564,282.334 715.262,273.918 685.071,249.931 C694.225,227.852 691.332,211.252 687.73,194.97 L682.024,198.362 C683.078,223.727 676.144,234.265 669.112,244.614 C567.062,298.492 501.54,268.091 451.363,243.874 C437.885,236.453 415.194,226.385 422.615,195.058 C422.926,196.671 423.89,198.356 426.094,200.178 C431.758,211.813 448.52,219.967 462.342,228.34 C479.282,234.045 492.111,232.755 507.788,225.52 L540.389,205.144 C549.006,199.621 547.032,191.073 544.146,182.263 L517.032,154.636 L517.069,154.629 L631.875,103.652 C663.924,103.416 674.281,97.365 701.909,109.856 C718.933,126.947 725.716,150.623 734.604,172.595 C738.792,151.474 734.923,130.817 719.641,112.522 C779.338,124.496 826.196,117.215 876.555,115.181 C918.054,119.508 974.666,146.504 1023.721,162.166 L898.813,100.95 C892.088,97.654 888.584,95.803 881.396,98.13 C793.189,113.798 732.287,103.344 675.183,89.26 C663.789,86.447 654.625,84.204 642.993,90.835 C587.868,111.989 534.465,136.828 469.951,137.864 C459.484,138.024 453.109,135.942 452.307,128.232 C453.297,106.645 453.324,84.404 439.497,72.18 L440.046,124.482 C439.742,133.473 426.434,134.26 425.53,134.114 C377.881,132.383 294.544,150.737 269.282,120.938 C270.895,105.389 273.441,89.609 261.306,77.498 L258.882,108.428 C258.033,115.719 254.442,116.469 249.675,115.833 C179.079,133.737 117.786,131.867 60.513,121.458 C-19.906,100.182 9.505,39.892 61.545,34.512 L254.846,24.917 z" fill="#EDCFA8" id="path19077"/>
    <path d="M502.932,158.818 C515.337,169.649 530.543,179.395 533.489,195.74 C524.408,208.353 509.02,216.763 489.924,222.7 C458.249,223.046 446.464,205.293 429.492,193.257 L424.805,187.705 C425.537,185.613 426.326,183.485 427.31,181.223 z" fill="#F5E1CA" id="path19075"/>
    <path d="M1206.101,199.373 C1303.764,276.831 1301.297,379.794 1323.039,462.48 C1333.236,414.805 1366.629,340.155 1301.726,256.86 C1366.182,298.51 1368.872,405.098 1380.718,475.012 C1395.515,414.744 1401.396,350.798 1368.171,270.659 C1411.126,302.498 1434.09,361.435 1451.433,421.978 L1451.286,421.993 C1462.097,491.879 1458.546,551.266 1433.562,600.389 L1432.251,602.959 L1432.822,605.75 C1445.515,669.856 1438.09,724.603 1401.848,768.933 L1251.555,722 C1334.298,704.655 1332.551,673.234 1360.635,646.78 C1281.845,712.105 1240.381,709.817 1205.896,695.852 C1311.608,518.196 1283.217,354.346 1206.101,199.373 z" fill="#0055D4" id="path19073"/>
    <path d="M1378.828,495.073 C1354.279,559.171 1319.666,619.445 1260.974,670.591 C1267.677,675.378 1321.17,635.329 1339.966,607.288 C1362.005,574.407 1378.828,495.073 1378.828,495.073 z" fill="#000000" id="path5047"/>
    <path d="M1189.063,565.092 C1138.51,589.028 1164.711,612.965 1185.074,636.901 C1185.074,636.901 1142.847,611.694 1145.623,591.688 C1148.398,571.683 1189.063,565.092 1189.063,565.092 z" fill="#000000" id="path5049"/>
    <path d="M435.403,248.24 C392.203,247.748 342.614,298.908 373.015,351.438 C441.473,395.854 473.047,395.881 505.107,392.659 C507.228,391.739 509.04,389.262 509.985,382.463 L511.311,334.592 L515.742,334.592 L523.279,391.772 C529.493,406.015 546.126,403.882 560.076,405.96 L650.889,391.721 L640.261,381.284 C634.818,371.904 634.736,365.032 635.684,360.74 C637.829,350.326 640.171,340.261 644.575,333.801 C646.641,331.227 648.806,326.574 652.317,325.254 C668.321,321.38 684.195,319.415 699.697,323.071 C725.067,330.481 726.865,350.883 724.094,372.363 L724.087,372.327 C696.476,378.798 674.525,385.301 650.94,391.772 L650.903,391.736 C650.741,391.789 559.179,421.915 557.41,421.472 C555.636,421.029 459.009,422.805 459.009,422.805 C454.227,435.764 462.381,471.295 494.604,494.773 C547.535,496.829 597.171,501.11 647.842,479.539 C642.987,462.589 642.349,446.7 646.948,432.114 C650.547,450.483 651.709,470.074 664.241,483.977 L673.55,487.075 L764.861,468.457 C781.999,464.17 797.103,457.853 813.179,452.505 C838.428,444.513 854.025,396.826 805.195,381.138 C785.529,373.4 762.864,368.115 730.283,370.942 C757.941,319.679 699.3,306.486 685.518,300.461 C639.607,294.861 593.739,290.094 548.987,305.339 L540.571,299.575 L550.759,296.917 L553.418,289.827 C521.126,283.213 491.832,274.2 448.367,276.526 L447.034,270.322 L474.075,269.876 L443.936,249.045 C441.138,248.539 438.283,248.273 435.403,248.24 z M812.659,391.611 C817.441,391.466 819.841,392.581 822.078,395.325 C824.68,398.1 827.52,400.741 829.914,404.319 C833.062,409.022 835.098,415.281 834.47,424.724 L834.47,425.178 L829.914,437.095 L829.116,437.607 C820.97,446.932 801.546,457.181 769.673,466.106 L769.16,466.34 L767.732,466.34 L766.992,465.879 C757.121,459.674 751.228,451.27 745.488,443.298 C737.546,434.018 742.41,416.78 745.159,409.116 L745.334,408.662 L745.627,408.259 C750.236,402.733 756.356,398.406 767.058,395.72 C777.04,393.216 791.103,391.932 812.659,391.611 z" fill="#EDCFA8" id="path19216"/>
    <path d="M812.739,397.522 C791.66,397.847 777.567,399.128 768.472,401.411 C758.88,403.819 754.511,407.121 750.579,411.731 C748.074,418.755 747.58,425.011 747.664,430.181 C747.202,434.779 748.658,437.574 751.069,440.859 C756.338,448.01 761.577,454.74 769.211,459.895 C799.313,453.477 817.397,441.975 825.183,433.103 L828.603,424.094 C829.085,415.873 827.544,411.264 825.073,407.571 C823.317,404.946 820.894,402.569 818.372,399.858 C817.194,397.89 815.065,397.482 812.739,397.522 z" fill="#F5E1CA" id="path19208"/>
    <path d="M724.087,372.327 L723.193,366.914 C722.528,355.029 724.495,342.261 699.697,329.275 C675.057,327.918 656.129,330.365 649.167,340.796 C645.741,355.657 636.887,369.698 651.826,387.341 C675.69,382.292 698.282,376.822 724.087,372.327 z" fill="#F5E1CA" id="path5059"/>
    <path d="M835.788,481.062 L788.313,483.787 C738.342,484.148 709.525,500.59 679.863,516.387 L553.235,522.656 C552.799,526.982 542.601,571.442 595.862,587.849 L697.419,583.462 C688.348,570.337 688.057,556.335 687.07,542.402 L692.717,538.953 C696.28,549.631 693.576,566.728 705.564,579.705 C712.718,583.51 720.783,585.26 731.265,581.58 C749.199,573.694 767.009,565.525 781.941,550.884 C768.344,539.002 761.866,522.869 766.077,509.429 L766.369,508.455 L767.109,507.715 C788.208,488.364 810.883,484.492 832.939,485.889 L832.932,485.881 L833.452,485.94 L833.965,486.116 C841.37,488.71 845.361,493.318 847.068,498.025 C848.571,502.171 849.273,508.03 850.041,511.64 C850.771,510.703 851.534,509.823 852.253,508.865 C853.279,506.107 859.223,499.696 847.141,485.317 C845.382,482.993 842.304,481.497 835.788,481.062 z" fill="#EDCFA8" id="path19177"/>
    <path d="M824.194,493.44 C806.834,493.564 790.217,498.087 773.774,512.563 C770.839,522.913 778.249,538.794 790.027,549.294 C812.799,547.306 829.843,535.29 844.285,518.723 C842.699,512.031 840.669,503.013 839.831,500.706 C838.773,497.782 837.002,495.609 831.68,493.638 C829.168,493.492 826.674,493.422 824.194,493.44 z" fill="#F5E1CA" id="path5061"/>
  </g>
</svg>
